<svg width="200" height="200" viewBox="0 0 200 200" fill="none" xmlns="http://www.w3.org/2000/svg">
<circle cx="100" cy="100" r="100" fill="#319612"/>
<path d="M81.4519 55.92V84H74.6119V67.16L68.3319 84H62.8119L56.4919 67.12V84H49.6519V55.92H57.7319L65.6119 75.36L73.4119 55.92H81.4519ZM89.2106 69.92C89.2106 67.1467 89.8106 64.68 91.0106 62.52C92.2106 60.3333 93.8773 58.64 96.0106 57.44C98.1706 56.2133 100.611 55.6 103.331 55.6C106.664 55.6 109.517 56.48 111.891 58.24C114.264 60 115.851 62.4 116.651 65.44H109.131C108.571 64.2667 107.771 63.3733 106.731 62.76C105.717 62.1467 104.557 61.84 103.251 61.84C101.144 61.84 99.4373 62.5733 98.1306 64.04C96.824 65.5067 96.1706 67.4667 96.1706 69.92C96.1706 72.3733 96.824 74.3333 98.1306 75.8C99.4373 77.2667 101.144 78 103.251 78C104.557 78 105.717 77.6933 106.731 77.08C107.771 76.4667 108.571 75.5733 109.131 74.4H116.651C115.851 77.44 114.264 79.84 111.891 81.6C109.517 83.3333 106.664 84.2 103.331 84.2C100.611 84.2 98.1706 83.6 96.0106 82.4C93.8773 81.1733 92.2106 79.48 91.0106 77.32C89.8106 75.16 89.2106 72.6933 89.2106 69.92ZM123.679 69.92C123.679 67.1467 124.279 64.68 125.479 62.52C126.679 60.3333 128.346 58.64 130.479 57.44C132.639 56.2133 135.079 55.6 137.799 55.6C141.133 55.6 143.986 56.48 146.359 58.24C148.733 60 150.319 62.4 151.119 65.44H143.599C143.039 64.2667 142.239 63.3733 141.199 62.76C140.186 62.1467 139.026 61.84 137.719 61.84C135.613 61.84 133.906 62.5733 132.599 64.04C131.293 65.5067 130.639 67.4667 130.639 69.92C130.639 72.3733 131.293 74.3333 132.599 75.8C133.906 77.2667 135.613 78 137.719 78C139.026 78 140.186 77.6933 141.199 77.08C142.239 76.4667 143.039 75.5733 143.599 74.4H151.119C150.319 77.44 148.733 79.84 146.359 81.6C143.986 83.3333 141.133 84.2 137.799 84.2C135.079 84.2 132.639 83.6 130.479 82.4C128.346 81.1733 126.679 79.48 125.479 77.32C124.279 75.16 123.679 72.6933 123.679 69.92ZM70.6858 144.28C68.0458 144.28 65.6191 143.667 63.4058 142.44C61.2191 141.213 59.4724 139.507 58.1658 137.32C56.8858 135.107 56.2458 132.627 56.2458 129.88C56.2458 127.133 56.8858 124.667 58.1658 122.48C59.4724 120.293 61.2191 118.587 63.4058 117.36C65.6191 116.133 68.0458 115.52 70.6858 115.52C73.3258 115.52 75.7391 116.133 77.9258 117.36C80.1391 118.587 81.8724 120.293 83.1258 122.48C84.4058 124.667 85.0458 127.133 85.0458 129.88C85.0458 132.627 84.4058 135.107 83.1258 137.32C81.8458 139.507 80.1124 141.213 77.9258 142.44C75.7391 143.667 73.3258 144.28 70.6858 144.28ZM70.6858 138.04C72.9258 138.04 74.7124 137.293 76.0458 135.8C77.4058 134.307 78.0858 132.333 78.0858 129.88C78.0858 127.4 77.4058 125.427 76.0458 123.96C74.7124 122.467 72.9258 121.72 70.6858 121.72C68.4191 121.72 66.6058 122.453 65.2458 123.92C63.9124 125.387 63.2458 127.373 63.2458 129.88C63.2458 132.36 63.9124 134.347 65.2458 135.84C66.6058 137.307 68.4191 138.04 70.6858 138.04ZM103.011 144.28C100.958 144.28 99.1178 143.947 97.4911 143.28C95.8644 142.613 94.5578 141.627 93.5711 140.32C92.6111 139.013 92.1044 137.44 92.0511 135.6H99.3311C99.4378 136.64 99.7978 137.44 100.411 138C101.024 138.533 101.824 138.8 102.811 138.8C103.824 138.8 104.624 138.573 105.211 138.12C105.798 137.64 106.091 136.987 106.091 136.16C106.091 135.467 105.851 134.893 105.371 134.44C104.918 133.987 104.344 133.613 103.651 133.32C102.984 133.027 102.024 132.693 100.771 132.32C98.9578 131.76 97.4778 131.2 96.3311 130.64C95.1844 130.08 94.1978 129.253 93.3711 128.16C92.5444 127.067 92.1311 125.64 92.1311 123.88C92.1311 121.267 93.0778 119.227 94.9711 117.76C96.8644 116.267 99.3311 115.52 102.371 115.52C105.464 115.52 107.958 116.267 109.851 117.76C111.744 119.227 112.758 121.28 112.891 123.92H105.491C105.438 123.013 105.104 122.307 104.491 121.8C103.878 121.267 103.091 121 102.131 121C101.304 121 100.638 121.227 100.131 121.68C99.6244 122.107 99.3711 122.733 99.3711 123.56C99.3711 124.467 99.7978 125.173 100.651 125.68C101.504 126.187 102.838 126.733 104.651 127.32C106.464 127.933 107.931 128.52 109.051 129.08C110.198 129.64 111.184 130.453 112.011 131.52C112.838 132.587 113.251 133.96 113.251 135.64C113.251 137.24 112.838 138.693 112.011 140C111.211 141.307 110.038 142.347 108.491 143.12C106.944 143.893 105.118 144.28 103.011 144.28ZM135.78 144L129.94 133.4H128.3V144H121.46V115.92H132.94C135.154 115.92 137.034 116.307 138.58 117.08C140.154 117.853 141.327 118.92 142.1 120.28C142.874 121.613 143.26 123.107 143.26 124.76C143.26 126.627 142.727 128.293 141.66 129.76C140.62 131.227 139.074 132.267 137.02 132.88L143.5 144H135.78ZM128.3 128.56H132.54C133.794 128.56 134.727 128.253 135.34 127.64C135.98 127.027 136.3 126.16 136.3 125.04C136.3 123.973 135.98 123.133 135.34 122.52C134.727 121.907 133.794 121.6 132.54 121.6H128.3V128.56Z" fill="white"/>
</svg>
