<svg width="200" height="200" viewBox="0 0 200 200" fill="none" xmlns="http://www.w3.org/2000/svg">
<circle cx="100" cy="100" r="100" fill="#319612"/>
<path d="M50.1658 124.476C45.6778 124.476 41.5525 123.433 37.7898 121.348C34.0725 119.263 31.1032 116.361 28.8818 112.644C26.7058 108.881 25.6178 104.665 25.6178 99.996C25.6178 95.3267 26.7058 91.1333 28.8818 87.416C31.1032 83.6987 34.0725 80.7973 37.7898 78.712C41.5525 76.6267 45.6778 75.584 50.1658 75.584C54.6538 75.584 58.7565 76.6267 62.4738 78.712C66.2365 80.7973 69.1832 83.6987 71.3138 87.416C73.4898 91.1333 74.5778 95.3267 74.5778 99.996C74.5778 104.665 73.4898 108.881 71.3138 112.644C69.1378 116.361 66.1912 119.263 62.4738 121.348C58.7565 123.433 54.6538 124.476 50.1658 124.476ZM50.1658 113.868C53.9738 113.868 57.0112 112.599 59.2778 110.06C61.5898 107.521 62.7458 104.167 62.7458 99.996C62.7458 95.78 61.5898 92.4253 59.2778 89.932C57.0112 87.3933 53.9738 86.124 50.1658 86.124C46.3125 86.124 43.2298 87.3707 40.9178 89.864C38.6512 92.3573 37.5178 95.7347 37.5178 99.996C37.5178 104.212 38.6512 107.589 40.9178 110.128C43.2298 112.621 46.3125 113.868 50.1658 113.868ZM105.119 124.476C101.628 124.476 98.5002 123.909 95.7349 122.776C92.9695 121.643 90.7482 119.965 89.0709 117.744C87.4389 115.523 86.5775 112.848 86.4869 109.72H98.8629C99.0442 111.488 99.6562 112.848 100.699 113.8C101.742 114.707 103.102 115.16 104.779 115.16C106.502 115.16 107.862 114.775 108.859 114.004C109.856 113.188 110.355 112.077 110.355 110.672C110.355 109.493 109.947 108.519 109.131 107.748C108.36 106.977 107.386 106.343 106.207 105.844C105.074 105.345 103.442 104.779 101.311 104.144C98.2282 103.192 95.7122 102.24 93.7629 101.288C91.8135 100.336 90.1362 98.9307 88.7309 97.072C87.3255 95.2133 86.6229 92.788 86.6229 89.796C86.6229 85.3533 88.2322 81.8853 91.4509 79.392C94.6695 76.8533 98.8629 75.584 104.031 75.584C109.29 75.584 113.528 76.8533 116.747 79.392C119.966 81.8853 121.688 85.376 121.915 89.864H109.335C109.244 88.3227 108.678 87.1213 107.635 86.26C106.592 85.3533 105.255 84.9 103.623 84.9C102.218 84.9 101.084 85.2853 100.223 86.056C99.3615 86.7813 98.9309 87.8467 98.9309 89.252C98.9309 90.7933 99.6562 91.9947 101.107 92.856C102.558 93.7173 104.824 94.6467 107.907 95.644C110.99 96.6867 113.483 97.684 115.387 98.636C117.336 99.588 119.014 100.971 120.419 102.784C121.824 104.597 122.527 106.932 122.527 109.788C122.527 112.508 121.824 114.979 120.419 117.2C119.059 119.421 117.064 121.189 114.435 122.504C111.806 123.819 108.7 124.476 105.119 124.476ZM160.827 124L150.899 105.98H148.111V124H136.483V76.264H155.999C159.761 76.264 162.957 76.9213 165.587 78.236C168.261 79.5507 170.256 81.364 171.571 83.676C172.885 85.9427 173.543 88.4813 173.543 91.292C173.543 94.4653 172.636 97.2987 170.823 99.792C169.055 102.285 166.425 104.053 162.935 105.096L173.951 124H160.827ZM148.111 97.752H155.319C157.449 97.752 159.036 97.2307 160.079 96.188C161.167 95.1453 161.711 93.672 161.711 91.768C161.711 89.9547 161.167 88.5267 160.079 87.484C159.036 86.4413 157.449 85.92 155.319 85.92H148.111V97.752Z" fill="white"/>
</svg>
