<svg width="200" height="200" viewBox="0 0 200 200" fill="none" xmlns="http://www.w3.org/2000/svg">
<circle cx="100" cy="100" r="100" fill="#319612"/>
<path d="M55.551 60.728L48.963 86H41.511L37.479 69.368L33.303 86H25.851L19.443 60.728H26.031L29.667 79.124L34.167 60.728H40.935L45.255 79.124L48.927 60.728H55.551ZM61.0142 75.92C61.0142 73.856 61.3982 72.044 62.1662 70.484C62.9582 68.924 64.0262 67.724 65.3702 66.884C66.7142 66.044 68.2142 65.624 69.8702 65.624C71.2862 65.624 72.5222 65.912 73.5782 66.488C74.6582 67.064 75.4862 67.82 76.0622 68.756V65.912H82.2183V86H76.0622V83.156C75.4622 84.092 74.6222 84.848 73.5422 85.424C72.4862 86 71.2502 86.288 69.8342 86.288C68.2022 86.288 66.7142 85.868 65.3702 85.028C64.0262 84.164 62.9582 82.952 62.1662 81.392C61.3982 79.808 61.0142 77.984 61.0142 75.92ZM76.0622 75.956C76.0622 74.42 75.6302 73.208 74.7662 72.32C73.9262 71.432 72.8942 70.988 71.6702 70.988C70.4462 70.988 69.4022 71.432 68.5382 72.32C67.6982 73.184 67.2782 74.384 67.2782 75.92C67.2782 77.456 67.6982 78.68 68.5382 79.592C69.4022 80.48 70.4462 80.924 71.6702 80.924C72.8942 80.924 73.9262 80.48 74.7662 79.592C75.6302 78.704 76.0622 77.492 76.0622 75.956ZM98.4438 86.288C96.6918 86.288 95.1318 85.988 93.7638 85.388C92.3958 84.788 91.3158 83.972 90.5238 82.94C89.7318 81.884 89.2878 80.708 89.1918 79.412H95.2758C95.3478 80.108 95.6718 80.672 96.2478 81.104C96.8238 81.536 97.5318 81.752 98.3718 81.752C99.1398 81.752 99.7278 81.608 100.136 81.32C100.568 81.008 100.784 80.612 100.784 80.132C100.784 79.556 100.484 79.136 99.8838 78.872C99.2838 78.584 98.3118 78.272 96.9678 77.936C95.5278 77.6 94.3278 77.252 93.3678 76.892C92.4078 76.508 91.5798 75.92 90.8838 75.128C90.1878 74.312 89.8398 73.22 89.8398 71.852C89.8398 70.7 90.1518 69.656 90.7758 68.72C91.4238 67.76 92.3598 67.004 93.5838 66.452C94.8318 65.9 96.3078 65.624 98.0118 65.624C100.532 65.624 102.512 66.248 103.952 67.496C105.416 68.744 106.256 70.4 106.472 72.464H100.784C100.688 71.768 100.376 71.216 99.8478 70.808C99.3438 70.4 98.6718 70.196 97.8318 70.196C97.1118 70.196 96.5598 70.34 96.1758 70.628C95.7918 70.892 95.5998 71.264 95.5998 71.744C95.5998 72.32 95.8998 72.752 96.4998 73.04C97.1238 73.328 98.0838 73.616 99.3798 73.904C100.868 74.288 102.08 74.672 103.016 75.056C103.952 75.416 104.768 76.016 105.464 76.856C106.184 77.672 106.556 78.776 106.58 80.168C106.58 81.344 106.244 82.4 105.572 83.336C104.924 84.248 103.976 84.968 102.728 85.496C101.504 86.024 100.076 86.288 98.4438 86.288ZM125.142 80.78V86H122.01C119.778 86 118.038 85.46 116.79 84.38C115.542 83.276 114.918 81.488 114.918 79.016V71.024H112.47V65.912H114.918V61.016H121.074V65.912H125.106V71.024H121.074V79.088C121.074 79.688 121.218 80.12 121.506 80.384C121.794 80.648 122.274 80.78 122.946 80.78H125.142ZM151.107 75.632C151.107 76.208 151.071 76.808 150.999 77.432H137.067C137.163 78.68 137.559 79.64 138.255 80.312C138.975 80.96 139.851 81.284 140.883 81.284C142.419 81.284 143.487 80.636 144.087 79.34H150.639C150.303 80.66 149.691 81.848 148.803 82.904C147.939 83.96 146.847 84.788 145.527 85.388C144.207 85.988 142.731 86.288 141.099 86.288C139.131 86.288 137.379 85.868 135.843 85.028C134.307 84.188 133.107 82.988 132.243 81.428C131.379 79.868 130.947 78.044 130.947 75.956C130.947 73.868 131.367 72.044 132.207 70.484C133.071 68.924 134.271 67.724 135.807 66.884C137.343 66.044 139.107 65.624 141.099 65.624C143.043 65.624 144.771 66.032 146.283 66.848C147.795 67.664 148.971 68.828 149.811 70.34C150.675 71.852 151.107 73.616 151.107 75.632ZM144.807 74.012C144.807 72.956 144.447 72.116 143.727 71.492C143.007 70.868 142.107 70.556 141.027 70.556C139.995 70.556 139.119 70.856 138.399 71.456C137.703 72.056 137.271 72.908 137.103 74.012H144.807ZM173.435 86L168.287 78.26L163.751 86H156.767L164.867 73.148L156.587 60.728H163.751L168.827 68.36L173.291 60.728H180.275L172.247 73.472L180.599 86H173.435ZM73.6172 140.252C71.2412 140.252 69.0572 139.7 67.0652 138.596C65.0972 137.492 63.5252 135.956 62.3492 133.988C61.1972 131.996 60.6212 129.764 60.6212 127.292C60.6212 124.82 61.1972 122.6 62.3492 120.632C63.5252 118.664 65.0972 117.128 67.0652 116.024C69.0572 114.92 71.2412 114.368 73.6172 114.368C75.9932 114.368 78.1652 114.92 80.1332 116.024C82.1252 117.128 83.6852 118.664 84.8132 120.632C85.9652 122.6 86.5412 124.82 86.5412 127.292C86.5412 129.764 85.9652 131.996 84.8132 133.988C83.6612 135.956 82.1012 137.492 80.1332 138.596C78.1652 139.7 75.9932 140.252 73.6172 140.252ZM73.6172 134.636C75.6332 134.636 77.2412 133.964 78.4412 132.62C79.6652 131.276 80.2772 129.5 80.2772 127.292C80.2772 125.06 79.6652 123.284 78.4412 121.964C77.2412 120.62 75.6332 119.948 73.6172 119.948C71.5772 119.948 69.9452 120.608 68.7212 121.928C67.5212 123.248 66.9212 125.036 66.9212 127.292C66.9212 129.524 67.5212 131.312 68.7212 132.656C69.9452 133.976 71.5772 134.636 73.6172 134.636ZM102.71 140.252C100.862 140.252 99.206 139.952 97.742 139.352C96.278 138.752 95.102 137.864 94.214 136.688C93.35 135.512 92.894 134.096 92.846 132.44H99.398C99.494 133.376 99.818 134.096 100.37 134.6C100.922 135.08 101.642 135.32 102.53 135.32C103.442 135.32 104.162 135.116 104.69 134.708C105.218 134.276 105.482 133.688 105.482 132.944C105.482 132.32 105.266 131.804 104.834 131.396C104.426 130.988 103.91 130.652 103.286 130.388C102.686 130.124 101.822 129.824 100.694 129.488C99.062 128.984 97.73 128.48 96.698 127.976C95.666 127.472 94.778 126.728 94.034 125.744C93.29 124.76 92.918 123.476 92.918 121.892C92.918 119.54 93.77 117.704 95.474 116.384C97.178 115.04 99.398 114.368 102.134 114.368C104.918 114.368 107.162 115.04 108.866 116.384C110.57 117.704 111.482 119.552 111.602 121.928H104.942C104.894 121.112 104.594 120.476 104.042 120.02C103.49 119.54 102.782 119.3 101.918 119.3C101.174 119.3 100.574 119.504 100.118 119.912C99.662 120.296 99.434 120.86 99.434 121.604C99.434 122.42 99.818 123.056 100.586 123.512C101.354 123.968 102.554 124.46 104.186 124.988C105.818 125.54 107.138 126.068 108.146 126.572C109.178 127.076 110.066 127.808 110.81 128.768C111.554 129.728 111.926 130.964 111.926 132.476C111.926 133.916 111.554 135.224 110.81 136.4C110.09 137.576 109.034 138.512 107.642 139.208C106.25 139.904 104.606 140.252 102.71 140.252ZM132.202 140L126.946 130.46H125.47V140H119.314V114.728H129.646C131.638 114.728 133.33 115.076 134.722 115.772C136.138 116.468 137.194 117.428 137.89 118.652C138.586 119.852 138.934 121.196 138.934 122.684C138.934 124.364 138.454 125.864 137.494 127.184C136.558 128.504 135.166 129.44 133.318 129.992L139.15 140H132.202ZM125.47 126.104H129.286C130.414 126.104 131.254 125.828 131.806 125.276C132.382 124.724 132.67 123.944 132.67 122.936C132.67 121.976 132.382 121.22 131.806 120.668C131.254 120.116 130.414 119.84 129.286 119.84H125.47V126.104Z" fill="white"/>
</svg>
